<svg width="116" height="77" viewBox="0 0 116 77" fill="none" xmlns="http://www.w3.org/2000/svg">
<path d="M7.60437 43.7016C13.5009 48.6392 33.3 36.367 56.7029 37.4472C80.1057 38.5273 115.289 76.7699 115.289 76.7699L115.052 4.50101C115.052 4.50101 72.1847 11.524 44.1014 14.7644C16.018 18.0048 8.03988 20.7605 1.26358 28.4872C-1.16977 31.2619 1.7079 38.764 7.60437 43.7016Z" fill="#747474"/>
<path d="M81.9906 28.0373C84.5632 28.0373 86.6486 25.9518 86.6486 23.3792C86.6486 20.8066 84.5632 18.7211 81.9906 18.7211C79.418 18.7211 77.3325 20.8066 77.3325 23.3792C77.3325 25.9518 79.418 28.0373 81.9906 28.0373Z" fill="#202020"/>
<path d="M86.1737 14.1706C86.1737 14.1706 93.9387 0.677353 100.94 3.35054C107.941 6.02373 96.8665 18.244 96.8665 18.244" stroke="#959595" stroke-width="4.48182" stroke-linejoin="bevel"/>
</svg>
